<svg id="Layer_1" data-name="Layer 1" xmlns="http://www.w3.org/2000/svg" viewBox="0 0 225 224.19"><title>logo</title><path d="M796,323c-5.9,8-13.31,12.74-23.76,11.23-1.09-.16-2.46.72-3.51,1.4-6.41,4.22-13.21,4.82-20.53,2.84-2-.53-4.28.09-6.39.44-2.44.42-5,2.06-7.2,1.55-7.67-1.83-15.15.6-22.48.32a110.72,110.72,0,0,0-22.1,1.65v38.14c17.07-4.08,34.27-7.43,49.91-15.72l.08-1.46c-3.22-.77-6.41-2-9.67-2.2-8-.57-16-.66-23.94-1-2.12-.11-4.71.07-6.21-1-1.73-1.29-3.43-3.91-3.37-5.89,0-1.48,2.84-3.95,4.57-4.11,15.63-1.46,31.2-1.24,46.45,3.14a19.11,19.11,0,0,1,4.46,2.21c8.82,5.33,9.46,13.35,1.46,19.82s-18,9.11-27.79,11.71c-6.68,1.78-13.47,3.14-19.78,4.59,3.22,4.61,7,8.83,9.42,13.75,4.48,9.32,2.38,17.11-6,24.41-4.62,4-9.74,7.44-15,11.4,3.09,2.57,6.31,5.09,9.36,7.8,14.57,12.94,14.75,25.79.34,39A73.07,73.07,0,0,1,692.77,495c12.67-26.77,12.15-33.81-4.54-44.39,0,6.19,0,11.76,0,17.33,0,3.5-.09,7-.12,10.49s.3,7.62-4.83,7.59c-4.83,0-4.54-3.93-4.61-7.29-.18-8.32-.33-16.65-.51-25,0-1.1-.12-2.2-.18-3.3l-1.42-.86c-4,4.7-8.32,9.16-11.87,14.18-2.92,4.13-2,9-.1,13.42,2.49,5.78,5.34,11.41,8.45,18-10.53-5.47-19-12.44-21.65-23.53-3.77-16.14,9.88-22.74,19.77-31.78l-5.27-3.42c-.7-.45-1.38-.92-2.07-1.39-20.12-13.77-21.34-26.76-3.55-44.24-4.29-1-8.23-1.72-12.08-2.78-8.15-2.25-16.39-4.31-24.34-7.15a42.16,42.16,0,0,1-12.48-7.08c-7.8-6.44-7.14-14.54,1.84-19.25a45.33,45.33,0,0,1,16.55-4.87c10.72-1,21.55-.93,32.34-1,3.41,0,6.89.92,6.91,5.46,0,3.58-3.43,5.82-8.36,6.06q-14.92.74-29.85,1.77c-1.7.12-3.35.92-5.27,1.47,5.31,5.75,32.51,14.66,51.47,17.12V343.2c-4.16-1.32-7.85-2.62-11.61-3.6-1.11-.29-2.44.43-3.68.52-3.77.29-8,1.67-11.19.47a20.54,20.54,0,0,0-13.67-.55c-2.74.76-6.37.94-8.77-.27-4.55-2.29-8.64-1.29-13.21-.74-4.12.49-8.89.28-12.57-1.4-4.44-2-8.56-3.49-13.52-3.44-8.12.08-13.18-5.33-17.77-11.19v-1c.66.08,1.31.19,2,.22,18.22.84,33.19-7.1,46.87-17.92,7.16-5.65,13.62-12.19,20.49-18.22,5.54-4.86,10-4.61,14.5.9,2.09,2.56,3.71,5.5,5.54,8.26,4,6,9.6,8.51,15.23,7.25-2.47-3.69-6-7.23-7.42-11.49-2.76-8.5,1.54-15,11.82-20h7a12.14,12.14,0,0,0,1.63.95c12.53,5.14,14.67,19.43,4.19,28-.83.67-1.57,1.44-2.56,2.36,6.72,1.36,12.22-1,16.06-6.71,1.38-2.06,2.5-4.31,3.93-6.35,5.73-8.17,10.57-8.59,17.93-1.83,6.36,5.85,12.53,12,19.35,17.26,14.19,11,29.6,19.15,48.47,17.33ZM677.63,397.82c-9.77,2.51-15.33,8.51-15.42,16-.07,5.65,6.34,11.68,15.42,14.57Zm11.66,30.82c6.21-5,14.93-6.58,13.7-16.66-.78-6.34-5.57-11.36-13.7-13.59Z" transform="translate(-571 -271)"/></svg>